<?xml version="1.0" encoding="UTF-8" standalone="no"?>
<svg
   version="1.1"
   viewBox="0 0 167.28578 84.361832"
   id="svg98"
   sodipodi:docname="4everforest.svg"
   width="167.28578"
   height="84.361832"
   inkscape:version="1.1 (c68e22c387, 2021-05-23)"
   xmlns:inkscape="http://www.inkscape.org/namespaces/inkscape"
   xmlns:sodipodi="http://sodipodi.sourceforge.net/DTD/sodipodi-0.dtd"
   xmlns="http://www.w3.org/2000/svg"
   xmlns:svg="http://www.w3.org/2000/svg">
  <defs
     id="defs102" />
  <sodipodi:namedview
     id="namedview100"
     pagecolor="#ffffff"
     bordercolor="#999999"
     borderopacity="1"
     inkscape:pageshadow="0"
     inkscape:pageopacity="0"
     inkscape:pagecheckerboard="0"
     showgrid="false"
     inkscape:zoom="3.7333333"
     inkscape:cx="72.991071"
     inkscape:cy="61.741071"
     inkscape:window-width="1366"
     inkscape:window-height="705"
     inkscape:window-x="-8"
     inkscape:window-y="-8"
     inkscape:window-maximized="1"
     inkscape:current-layer="svg98" />
  <path
     id="path76"
     d="m 48.045075,3.181742 c -0.10075,-0.03502 -0.25183,0.07446 -0.45334,0.327701 l -5.4736,6.8892 -13.55804,17.1526 -0.13576,0.19762 c -0.0263,0.10103 -0.0442,0.20576 -0.0556,0.31381 -0.0114,0.10805 -0.0161,0.21894 -0.0158,0.33211 3.5e-4,0.11318 0.006,0.22836 0.0145,0.34475 -0.009,-0.11639 -0.0142,-0.23157 -0.0145,-0.34475 -3.5e-4,-0.11317 0.004,-0.22406 0.0158,-0.33211 0.0114,-0.10805 0.0293,-0.21278 0.0556,-0.31381 l -6.79512,8.58893 -14.0366398,17.74485 c -2.37501,3.00432 -4.74934,6.00027 -7.12218997,8.98734 -0.24784,0.3125 -0.3952,0.55496 -0.44261,0.72738 -0.0905,0.34052 0.0402,0.5108 0.39147,0.5108 l 8.85095997,0.006 16.1802398,0.003 h 16.83627 l 3.22582,0.003 a 0.32650933,0.32650933 0 0 1 0.32707,0.32643 l 0.11302,17.941846 c 0,0.12284 0.0559,0.2093 0.16795,0.25887 0.55927,0.25539 2.06909,0.35217 2.06909,-0.61119 0.004,-3.144396 0.007,-6.287696 0.009,-9.429946 l -0.003,-69.08711 c 0,-0.32328 -0.0502,-0.502929 -0.15091,-0.537951 z m -2.37721,6.464901 a 0.24245742,0.24245742 0 0 1 0.25887,0.25066 c -0.14548,4.49355 -0.0161,10.04721 -0.003,13.50627 0.0172,6.10993 0.0182,12.21923 0.003,18.327 -0.006,2.24031 0.17439,5.96069 -0.10039,8.66975 -0.0108,0.10561 -0.0677,0.17377 -0.17111,0.20394 -0.38578,0.10776 -0.77823,0.10312 -1.17693,-0.0133 l -12.93422,-0.0189 -13.92994,0.0158 -3.91531,0.10039 a 0.28448337,0.28448337 0 0 1 -0.22919,-0.45903 l 8.9223,-11.29826 6.56908,-8.30227 13.96214,-17.65078 c -0.0741,0.009 -0.14182,0.006 -0.20331,-0.008 -0.0615,-0.0136 -0.11653,-0.038 -0.16543,-0.0739 -0.0489,-0.0359 -0.0912,-0.0833 -0.12754,-0.14143 -0.0363,-0.0582 -0.0666,-0.12732 -0.0903,-0.20773 0.0237,0.0804 0.054,0.14957 0.0903,0.20773 0.0363,0.0581 0.0786,0.10553 0.12754,0.14143 0.0489,0.0359 0.10394,0.0602 0.16543,0.0739 0.0615,0.0136 0.12923,0.0162 0.20331,0.008 l 2.57043,-3.23908 a 0.24245742,0.24245742 0 0 1 0.17427,-0.0922 z m -3.31359,1.40171 c -0.0533,0.3389 -0.0816,0.63283 -0.0846,0.88269 0.003,-0.24986 0.0313,-0.54379 0.0846,-0.88269 z m 1.25459,39.63357 c -0.0226,0.002 -0.0352,0.007 -0.0379,0.0158 -0.003,0.009 0.004,0.0209 0.0215,0.036 -0.0173,-0.0151 -0.0242,-0.0274 -0.0215,-0.036 0.003,-0.009 0.0153,-0.0136 0.0379,-0.0158 z m 0.0777,0.19384 c -0.0636,0.11423 -0.11672,0.231 -0.15848,0.3498 -0.0417,0.1188 -0.0722,0.23967 -0.0922,0.36306 -0.0199,0.12338 -0.029,0.24898 -0.0271,0.37694 0.002,0.12796 0.0148,0.25829 0.0385,0.39084 -0.0237,-0.13255 -0.0366,-0.26288 -0.0385,-0.39084 -0.002,-0.12796 0.007,-0.25356 0.0271,-0.37694 0.0199,-0.12339 0.0504,-0.24426 0.0922,-0.36306 0.0418,-0.1188 0.0949,-0.23557 0.15848,-0.3498 z m -0.42998,1.56146 c -0.0517,0 -0.0824,0.01 -0.0915,0.029 -0.009,0.0194 0.003,0.0483 0.0366,0.0871 -0.0334,-0.0388 -0.0458,-0.0677 -0.0366,-0.0871 0.009,-0.0194 0.0398,-0.029 0.0915,-0.029 z m -10.57152,0.48175 h 10.83292 l 2.18212,0.003 a 0.16810381,0.16810381 0 0 1 0.16479,0.16795 l -0.0189,8.719 a 0.16810381,0.16810381 0 0 1 -0.16795,0.16795 h -2.72575 -17.21764 l -14.46978,0.006 -6.6271698,0.0423 a 0.23922465,0.23922465 0 0 1 -0.19068,-0.38768 l 4.06053,-5.13391 c -0.0475,-0.0424 -0.0887,-0.0875 -0.12439,-0.13449 -0.0357,-0.047 -0.0659,-0.0957 -0.0915,-0.14648 0.0256,0.0508 0.0559,0.0995 0.0915,0.14648 0.0357,0.047 0.0769,0.0921 0.12439,0.13449 l 2.7478498,-3.44618 c 0.069,-0.0862 0.15843,-0.12944 0.26834,-0.12944 l 5.8676,-0.006 z m 9.72734,9.52719 a 0.30711273,0.31357826 69.4 0 0 -0.10987,0.23551 0.30711273,0.31357826 69.4 0 1 0.10987,-0.23551 z m -17.15765,0.96415 c 0.0178,0.13335 0.0432,0.27556 0.0758,0.42682 -0.0326,-0.15126 -0.058,-0.29347 -0.0758,-0.42682 z"
     style="fill:#105651;stroke-width:0.323277" />
  <text
     xml:space="preserve"
     style="font-weight:500;font-size:46.6667px;line-height:1.25;font-family:'CMU Serif';-inkscape-font-specification:'CMU Serif, Medium';font-variant-ligatures:none;stroke-width:1.5434;fill:#105651"
     x="51.215794"
     y="28.700537"
     id="text4797"><tspan
       sodipodi:role="line"
       id="tspan4795"
       x="51.215794"
       y="28.700537"
       style="font-style:normal;font-variant:normal;font-weight:normal;font-stretch:normal;font-size:46.6667px;font-family:Harrington;-inkscape-font-specification:Harrington;stroke-width:1.5434;fill:#105651"
       rotate="0 0 0 0 0">ever</tspan></text>
  <text
     xml:space="preserve"
     style="font-weight:500;font-size:46.6667px;line-height:1.25;font-family:'CMU Serif';-inkscape-font-specification:'CMU Serif, Medium';font-variant-ligatures:none;fill:#105651"
     x="51.530491"
     y="73.32621"
     id="text26621"><tspan
       sodipodi:role="line"
       id="tspan26619"
       x="51.530491"
       y="73.32621"
       style="font-style:normal;font-variant:normal;font-weight:normal;font-stretch:normal;font-size:46.6667px;font-family:Harrington;-inkscape-font-specification:Harrington;fill:#105651"
       rotate="0 0 0 0 0 0 0">forest</tspan></text>
</svg>
