<?xml version="1.0" encoding="UTF-8" standalone="no"?>
<!-- Created with Inkscape (http://www.inkscape.org/) -->

<svg
   width="26.431112mm"
   height="12.05093mm"
   viewBox="0 0 26.431112 12.05093"
   version="1.1"
   id="svg5"
   inkscape:version="1.1 (c68e22c387, 2021-05-23)"
   sodipodi:docname="UpVersatileLogoWhite.svg"
   xmlns:inkscape="http://www.inkscape.org/namespaces/inkscape"
   xmlns:sodipodi="http://sodipodi.sourceforge.net/DTD/sodipodi-0.dtd"
   xmlns="http://www.w3.org/2000/svg"
   xmlns:svg="http://www.w3.org/2000/svg">
  <sodipodi:namedview
     id="namedview7"
     pagecolor="#ffffff"
     bordercolor="#999999"
     borderopacity="1"
     inkscape:pageshadow="0"
     inkscape:pageopacity="0"
     inkscape:pagecheckerboard="0"
     inkscape:document-units="mm"
     showgrid="false"
     inkscape:zoom="1.2699352"
     inkscape:cx="2.7560461"
     inkscape:cy="36.616041"
     inkscape:window-width="1366"
     inkscape:window-height="705"
     inkscape:window-x="-8"
     inkscape:window-y="-8"
     inkscape:window-maximized="1"
     inkscape:current-layer="layer1" />
  <defs
     id="defs2" />
  <g
     inkscape:label="Layer 1"
     inkscape:groupmode="layer"
     id="layer1"
     transform="translate(-77.537818,-88.638031)">
    <text
       xml:space="preserve"
       style="font-weight:500;font-size:5.64444px;line-height:1.25;font-family:'CMU Serif';-inkscape-font-specification:'CMU Serif, Medium';font-variant-ligatures:none;fill:#ffffff;stroke-width:0.264583"
       x="77.196426"
       y="99.589287"
       id="text1706"><tspan
         sodipodi:role="line"
         id="tspan1704"
         style="font-style:normal;font-variant:normal;font-weight:normal;font-stretch:normal;font-size:5.64444px;font-family:'CMU Sans Serif';-inkscape-font-specification:'CMU Sans Serif';fill:#ffffff;stroke-width:0.264583"
         x="77.196426"
         y="99.589287">UpVersatile</tspan></text>
    <path
       fill="#222831"
       d="m 79.278564,96.469102 c 0.182309,0.168801 0.304812,0.329408 0.247659,0.593223 -0.0434,0.200876 -0.276356,0.463969 -0.143243,0.67184 0.07668,0.11961 0.245249,0.151924 0.345807,0.04413 0.121299,-0.130221 0.0803,-0.318074 -0.02459,-0.448779 a 0.00385837,0.00361723 86.9 0 1 0.0048,-0.0055 q 0.456493,0.312772 0.204493,0.831723 c -0.06366,0.130944 -0.270085,0.343154 -0.203287,0.504242 0.04124,0.09983 0.177002,0.137213 0.267674,0.08392 0.09308,-0.05474 0.101282,-0.14686 0.109723,-0.244765 a 0.00724649,0.00724649 0 0 1 0.01446,-8.47e-4 c 0.09091,0.483262 -0.356418,0.831961 -0.784215,0.889114 -0.711869,0.09477 -1.278328,-0.548613 -1.102772,-1.246255 q 0.08344,-0.331821 0.368716,-0.555605 a 0.00217033,0.00217033 0 0 1 0.0029,0.0029 c -0.112857,0.145172 -0.185925,0.347255 -0.07042,0.510992 0.09284,0.131909 0.300229,0.07379 0.38029,-0.03785 0.09791,-0.136731 0.106588,-0.303364 0.05932,-0.466382 -0.07597,-0.262129 -0.244525,-0.416222 -0.108034,-0.708735 q 0.0051,-0.01037 0.0084,4.24e-4 c 0.03785,0.123951 0.168563,0.204736 0.284314,0.127327 0.190507,-0.126845 -0.01109,-0.351594 -0.06632,-0.485673 q -0.10514,-0.255619 0.07547,-0.501108 a 0.00868135,0.0089225 72.4 0 1 0.01544,0.008 q -0.0832,0.251518 0.113339,0.433583 z"
       id="path6"
       style="fill:#00112b;stroke-width:0.0241148" />
    <g
       id="g8247"
       transform="matrix(0,-0.27946498,-0.27946498,0,110.05489,117.70768)">
      <path
         fill="#222831"
         d="m 85.039302,92.862151 a 0.06879167,0.06879167 0 0 1 0.0979,0 l 5.230812,5.212292 a 1.5901458,0.86783332 44.9 0 1 0.513292,1.735667 l -1.510771,1.51871 a 1.5901458,0.86783332 44.9 0 1 -1.740958,-0.508 L 82.39876,95.608526 a 0.06879167,0.06879167 0 0 1 0,-0.09789 z"
         id="path16"
         style="stroke-width:0.264583" />
      <rect
         fill="#222831"
         x="135.33986"
         y="3.8224771"
         transform="rotate(44.9)"
         width="7.6570415"
         height="7.6570415"
         rx="0.87841666"
         id="rect18"
         style="stroke-width:0.264583" />
      <path
         fill="#222831"
         d="m 101.35616,114.44951 a 0.07408333,0.07408333 0 0 1 -0.10584,0 l -5.220227,-5.22023 a 1.6298333,0.90487499 45 0 1 -0.510645,-1.79123 l 1.465791,-1.46579 a 1.6298333,0.90487499 45 0 1 1.791229,0.51064 l 5.220232,5.22023 a 0.07408333,0.07408333 0 0 1 0,0.10583 z"
         id="path20"
         style="stroke-width:0.264583" />
      <path
         fill="#222831"
         d="m 86.24051,106.31886 c 0.357188,2.66171 2.219854,4.56406 4.863042,4.94242 q 0.119062,0.0159 0.108479,0.13493 l -0.150812,1.524 q -0.01323,0.14552 -0.156105,0.11642 -5.439833,-1.09537 -6.439958,-6.55902 -0.0291,-0.15875 0.132292,-0.17198 l 1.468437,-0.127 a 0.16404166,0.16139583 83.6 0 1 0.174625,0.14023 z"
         id="path22"
         style="stroke-width:0.264583" />
      <path
         fill="#222831"
         d="m 90.791344,114.7723 q 0.129645,0.0238 0.11377,0.15346 l -0.14552,1.29381 q -0.01588,0.12171 -0.137584,0.127 -0.862541,0.0476 -1.653646,-0.18256 c -4.270375,-1.24355 -7.535333,-4.78367 -7.950729,-9.31863 a 0.16139583,0.16139583 0 0 1 0.145521,-0.17727 l 1.349375,-0.13229 q 0.148167,-0.0132 0.174625,0.13229 1.240896,6.85535 8.104188,8.10419 z"
         id="path24"
         style="stroke-width:0.264583" />
    </g>
  </g>
</svg>
